ply
format ascii 1.0
element vertex 375
property float x
property float y
property float z
property uchar red
property uchar green
property uchar blue
element face 19
property list uchar int vertex_index
end_header
0.255505114794 0.0643737526642 -0.147581636906 100 116 195
0.251418143511 0.06437375267 -0.212704896927 100 116 195
0.241717085242 0.0643737526649 -0.240228146315 100 116 195
0.224653571844 0.0643737526529 -0.268791109324 100 116 195
0.1940779984 0.0643737526282 -0.297368615866 100 116 195
0.184577614069 0.0643737526204 -0.305695712566 100 116 195
0.161489009857 0.0643737526015 -0.325891792774 100 116 195
0.144464477897 0.0643737525875 -0.340450286865 100 116 195
0.140620738268 0.0643737525843 -0.343637824059 100 116 195
0.0951136052608 0.0643737525456 -0.37342685461 100 116 195
0.0337791219354 0.064373752493 -0.410924494267 100 116 195
0.0214946717024 0.0643737524822 -0.416862487793 100 116 195
0.0134107731283 0.0643737524749 -0.419074565172 100 116 195
0.00597602268681 0.0643737524678 -0.419009149075 100 116 195
-0.0387142188847 0.064373752423 -0.403169184923 100 116 195
-0.0654523670673 0.0643737523954 -0.387992680073 100 116 195
-0.137925967574 0.06437375232 -0.343346893787 100 116 195
-0.159781217575 0.0643737522969 -0.32716563344 100 116 195
-0.199184074998 0.0643737522544 -0.29276612401 100 116 195
-0.230197221041 0.0643737522193 -0.254774481058 100 116 195
-0.248682424426 0.0643737521941 -0.203484147787 100 116 195
-0.252349317074 0.0643737521889 -0.191756188869 100 116 195
-0.253031104803 0.0643737521856 -0.173759862781 100 116 195
-0.252261191607 0.0643737521804 -0.133661851287 100 116 195
-0.247884526849 0.0643737521748 -0.0682542920113 100 116 195
-0.241784915328 0.0643737521742 -0.0257520601153 100 116 195
-0.214611947536 0.0643737521785 0.119002059102 100 116 195
-0.192322492599 0.0643737521858 0.212102979422 100 116 195
-0.188481837511 0.0643737521878 0.223324090242 100 116 195
-0.163709491491 0.0643737522017 0.287816852331 100 116 195
-0.129261061549 0.0643737522228 0.365281432867 100 116 195
-0.116178974509 0.0643737522316 0.389680802822 100 116 195
-0.0931575000286 0.0643737522476 0.429153650999 100 116 195
-0.0513066872954 0.0643737522783 0.489483892918 100 116 195
-0.0338306166232 0.0643737522912 0.514197349548 100 116 195
-0.00501343701035 0.064373752313 0.551669239998 100 116 195
0.00662712287158 0.0643737523245 0.548544645309 100 116 195
0.0173078216612 0.0643737523361 0.538583278656 100 116 195
0.0291832331568 0.0643737523499 0.521813631058 100 116 195
0.0964069589972 0.0643737524281 0.425063759089 100 116 195
0.140107542276 0.0643737524807 0.350047051907 100 116 195
0.157936006784 0.0643737525029 0.314307183027 100 116 195
0.173018962145 0.0643737525226 0.278184115887 100 116 195
0.183190882206 0.0643737525365 0.249488160014 100 116 195
0.189918398857 0.064373752546 0.228689834476 100 116 195
0.195898875594 0.0643737525551 0.205734878778 100 116 195
0.215370804071 0.0643737525873 0.113514900208 100 116 195
0.240276768804 0.0643737526287 -0.00633317232132 100 116 195
0.247606664896 0.0643737526422 -0.0500929579139 100 116 195
-0.269937565655 0.0576472118918 -0.134601216042 157 167 127
-0.282932273912 0.0486295767642 -0.201625202616 157 167 127
-0.282931488422 0.0485762532517 -0.201706028041 157 167 127
-0.281565318638 0.0409850639748 -0.208114263923 157 167 127
-0.276907855039 0.0248613789083 -0.214589429369 157 167 127
-0.26173310778 -0.0201899010282 -0.22389735325 157 167 127
-0.24850366325 -0.0523873429222 -0.220858892103 157 167 127
-0.240426201822 -0.0711940601152 -0.217661311404 157 167 127
-0.227079658026 -0.10111145307 -0.210554406711 157 167 127
-0.212698840527 -0.121869147952 -0.18481154376 157 167 127
-0.187413384925 -0.112591578023 -0.0674236105059 157 167 127
-0.176206550607 -0.107722430904 -0.0142027096863 157 167 127
-0.162155724226 -0.100117331048 0.0548881238596 157 167 127
-0.160412594317 -0.0991507425323 0.0634958659285 157 167 127
-0.154484999444 -0.0910533394432 0.10034640757 157 167 127
-0.0888692607856 0.0151627562962 0.534391277637 157 167 127
-0.0976483438283 0.0348665375433 0.52975547158 157 167 127
-0.118655350863 0.0468386632359 0.463238413026 157 167 127
-0.125545788459 0.0501757673716 0.440491020848 157 167 127
-0.157470153638 0.060984904538 0.327769128715 157 167 127
-0.179109830837 0.0654392408764 0.246835420761 157 167 127
-0.208784767651 0.0662006765997 0.127424653074 157 167 127
-0.237352615935 0.0638401330176 0.00759444990915 157 167 127
-0.259931059725 0.0606729855295 -0.0891633864031 157 167 127
0.0681720923336 -0.17756110949 -0.244639316893 105 185 185
0.0307480293366 -0.185885659338 -0.257293267396 105 185 185
0.00682492167372 -0.188565217906 -0.267181336965 105 185 185
-0.00041538938438 -0.185811405121 -0.27260157003 105 185 185
-0.00524131858201 -0.183525592898 -0.276521003435 105 185 185
-0.00870820441169 -0.181197796925 -0.279803634676 105 185 185
-0.0210450653809 -0.17251608641 -0.291756059777 105 185 185
-0.0194989299726 -0.14173963273 -0.311957842504 105 185 185
-0.0179138866475 -0.112113753212 -0.331357034307 105 185 185
-0.0165249439507 -0.091296865103 -0.344853311214 105 185 185
-0.0125688974138 -0.0428353760474 -0.375918707663 105 185 185
-0.0111630558559 -0.031980229618 -0.382622760882 105 185 185
0.000204989589993 0.0481034836159 -0.431593959667 105 185 185
0.00585558709524 0.0584278923981 -0.435858330714 105 185 185
0.00916592375387 0.0601184201202 -0.435388826568 105 185 185
0.0276623165179 0.0592122346899 -0.42571580545 105 185 185
0.145996325127 0.0518792132613 -0.362785207184 105 185 185
0.157625543858 0.0500456753939 -0.355842854798 105 185 185
0.246052262913 0.0305069275993 -0.299242881734 105 185 185
0.24573516472 0.0255596728777 -0.296029051909 105 185 185
0.242535995799 -0.00205696616814 -0.278788436045 105 185 185
0.234276903062 -0.03000935069 -0.263796536488 105 185 185
0.224674754491 -0.0509441744731 -0.254241164061 105 185 185
0.218739755945 -0.061696790165 -0.249824427839 105 185 185
0.176058453249 -0.110338699938 -0.237596206401 105 185 185
0.157059523675 -0.126271171553 -0.236048139609 105 185 185
0.148327853585 -0.133097745761 -0.235674300823 105 185 185
0.109703531417 -0.161071589858 -0.235534726075 105 185 185
0.103248620003 -0.163975798694 -0.236717309394 105 185 185
0.0860410665932 -0.171549487446 -0.23998451197 105 185 185
0.0244772285409 -0.208099932769 -0.234979394598 217 148 165
-0.00319828880203 -0.211036292952 -0.233824713849 217 148 165
-0.0173578299821 -0.207492228463 -0.208092349831 217 148 165
-0.0292445304763 -0.201042434151 -0.169179597023 217 148 165
-0.0329899900838 -0.159703126183 0.0389130881096 217 148 165
-0.0334588395522 -0.15119762864 0.0815557231498 217 148 165
-0.0272125921222 -0.110896262474 0.278778800646 217 148 165
-0.00367958812826 -0.0801046850818 0.418764162593 217 148 165
0.0043360127989 -0.0730961949113 0.449109699068 217 148 165
0.0108488795523 -0.067717645261 0.472191749103 217 148 165
0.0293613076909 -0.0705659862207 0.447443007712 217 148 165
0.0739554334902 -0.100866316852 0.271050772011 217 148 165
0.0806629290705 -0.106242544987 0.240440441322 217 148 165
0.09296594017 -0.123735654374 0.146271356397 217 148 165
0.102090753248 -0.145168904357 0.0342846886857 217 148 165
0.110765092188 -0.17160607073 -0.102375076818 217 148 165
0.105074534458 -0.19443652178 -0.212873227087 217 148 165
0.0808767635064 -0.200134925849 -0.227462756415 217 148 165
0.122804186243 0.0414835530357 0.492844247753 204 104 106
0.127038601663 0.0482950803972 0.47752926269 204 104 106
0.130736608498 0.0514361757837 0.462014942456 204 104 106
0.141859162653 0.0570025488086 0.412394766749 204 104 106
0.173496393274 0.0636562306798 0.264259186296 204 104 106
0.226033158711 0.0659692532469 0.0116082826483 204 104 106
0.233009348946 0.0659017519538 -0.0222259111809 204 104 106
0.240406547937 0.064613332899 -0.0590292351496 204 104 106
0.268291051737 0.0592253668542 -0.198167893677 204 104 106
0.271207385681 0.0576377279395 -0.21350028294 204 104 106
0.275434190124 0.0507879868444 -0.239188548255 204 104 106
0.275862794642 0.04580366555 -0.245062243957 204 104 106
0.268017458021 0.000901255152229 -0.241287036692 204 104 106
0.260569549248 -0.0358543226768 -0.233228369647 204 104 106
0.258443881483 -0.0422786256345 -0.227830090891 204 104 106
0.254781631415 -0.0493648254034 -0.21549516751 204 104 106
0.248016175842 -0.0544493467395 -0.186607408752 204 104 106
0.244895026749 -0.0562334149319 -0.172852488453 204 104 106
0.217613022979 -0.0523760507144 -0.0377978309405 204 104 106
0.194645533937 -0.0430277644155 0.0805476288025 204 104 106
0.180368890453 -0.0367275621381 0.154484281116 204 104 106
0.175217919868 -0.0325080002363 0.182643649786 204 104 106
0.164337818777 -0.0232675550946 0.242372794119 204 104 106
0.156149157829 -0.0147195860647 0.288540745795 204 104 106
0.152454529423 -0.00874899669209 0.310981976551 204 104 106
-0.0684552440956 0.161521207034 0.0200541005346 166 184 100
-0.0792834836032 0.155553894075 0.0207749807646 166 184 100
-0.0982296743323 0.107211164238 0.0373564725319 166 184 100
-0.0931269389243 0.0907212613216 0.0448187644848 166 184 100
-0.0699529195974 0.0723617457936 0.055859140845 166 184 100
-0.0620803779811 0.0712175376674 0.057551171923 166 184 100
-0.000585496876903 0.0652337417738 0.0695741370016 166 184 100
0.0461373968801 0.0720435854073 0.0741187251054 166 184 100
0.0547748232727 0.0837176595094 0.0707489665543 166 184 100
0.0556921444574 0.116383850161 0.0576883055874 166 184 100
0.0454689907627 0.151606692336 0.0418543072466 166 184 100
0.0380758495083 0.157553504818 0.0382958988912 166 184 100
-0.00619734974216 0.163443830975 0.0290003966455 166 184 100
0.0687381301404 0.110677150865 0.0537095285386 148 108 152
0.0573585317812 0.148626445944 0.0376332381151 148 108 152
0.0576188124058 0.171722004983 0.0172913220023 148 108 152
0.0593353198547 0.180137793662 0.00749622986427 148 108 152
0.0610320769867 0.182853564308 0.00265618760215 148 108 152
0.0767191044509 0.195667598661 -0.031466747066 148 108 152
0.0796152260111 0.195291144244 -0.0353966682269 148 108 152
0.11467859314 0.174926395447 -0.0693156269338 148 108 152
0.128347277707 0.163257475095 -0.0793145270604 148 108 152
0.139028373984 0.148475828776 -0.0822337186324 148 108 152
0.154780954111 0.113418141422 -0.0750815956985 148 108 152
0.164158731087 0.0842804240605 -0.0636791201399 148 108 152
0.16630766217 0.0752640870852 -0.0590444972251 148 108 152
0.157473013837 0.0699313524675 -0.0414551695652 148 108 152
0.133738070491 0.0691386788094 -0.00589648784924 148 108 152
0.105946236357 0.0706021796484 0.0336731489912 148 108 152
0.0835576400219 0.0878617938018 0.0516526238357 148 108 152
0.0801371073811 0.0913337849125 0.0536778561032 148 108 152
0.161307427842 0.102411051653 -0.0797099053522 186 174 217
0.133131098165 0.154480577242 -0.103801067623 186 174 217
0.129855084327 0.159433806588 -0.107296659733 186 174 217
0.104549730205 0.16786716875 -0.15311782453 186 174 217
0.0902499413351 0.163899725317 -0.184521001182 186 174 217
0.0889948076634 0.12941383086 -0.208816517542 186 174 217
0.0915181978644 0.0947286168697 -0.225601386392 186 174 217
0.0941219665909 0.0831064585397 -0.227672166814 186 174 217
0.0994429155113 0.0683912490385 -0.226203079537 186 174 217
0.103111815965 0.0671105988167 -0.219596247272 186 174 217
0.135939693775 0.0638158955081 -0.155329800585 186 174 217
0.162993010013 0.073291055482 -0.0946766106144 186 174 217
0.165786430902 0.0778263013752 -0.0861695834888 186 174 217
0.121146833227 0.172814509726 -0.0897514940977 206 166 111
0.120391071477 0.171512596347 -0.0989447573304 206 166 111
0.111808367363 0.169719276577 -0.129746038048 206 166 111
0.108458978384 0.169364891043 -0.139809117352 206 166 111
0.100878304535 0.169025387911 -0.159964284152 206 166 111
0.079981265189 0.174305687217 -0.180308385977 206 166 111
0.0201517271163 0.199534581901 -0.181273402115 206 166 111
0.0151621063284 0.202965520366 -0.173836601622 206 166 111
0.0121024133327 0.205222624777 -0.168408282038 206 166 111
0.00779385606726 0.208480564291 -0.160313575495 206 166 111
0.000676223782258 0.214028635483 -0.146000696903 206 166 111
-0.00150559783123 0.222832224318 -0.101373778873 206 166 111
-0.000411943499784 0.225691603231 -0.0825444839233 206 166 111
0.0284792659805 0.216607352035 -0.0645243318595 206 166 111
0.0682369844593 0.204013281378 -0.0402537209489 206 166 111
0.0881769191298 0.193886631987 -0.0496671389176 206 166 111
0.103914021411 0.184203387111 -0.0666765423793 206 166 111
-0.00888619103191 0.211355392458 -0.143361008437 182 152 188
-0.0080244665209 0.204959676749 -0.164874280618 182 152 188
-0.0113563842934 0.197611457294 -0.182879534493 182 152 188
-0.021893879501 0.189784902383 -0.1912035425 182 152 188
-0.0304985822422 0.183918561199 -0.196345727756 182 152 188
-0.0511491962957 0.171617719973 -0.203078195816 182 152 188
-0.0682943771197 0.166215498386 -0.193493121091 182 152 188
-0.0793741714135 0.162862993383 -0.186861736836 182 152 188
-0.115808294653 0.157709319576 -0.146537237411 182 152 188
-0.123418841619 0.1576603655 -0.134872614567 182 152 188
-0.107972494409 0.184047835027 -0.075622306171 182 152 188
-0.107238490029 0.184917790319 -0.0740179630251 182 152 188
-0.0997334818424 0.190739941612 -0.0673073665777 182 152 188
-0.0828665440143 0.200688914096 -0.0621177911761 182 152 188
-0.0598087301705 0.209512215345 -0.070093422933 182 152 188
-0.0167925095569 0.224824802627 -0.0885939189144 182 152 188
0.0286581845893 0.165762996133 0.0329891585552 214 196 133
-0.00924592257857 0.162285437843 0.0305937714886 214 196 133
-0.076681946645 0.162715952302 0.0149880505357 214 196 133
-0.0809020234796 0.165688210367 0.00896246814282 214 196 133
-0.0821106088375 0.171390260968 -0.00107869758734 214 196 133
-0.0828205492815 0.178830521695 -0.0139896430277 214 196 133
-0.0837995288334 0.19774231756 -0.0466249165979 214 196 133
-0.0517428351395 0.210470847441 -0.0613771414139 214 196 133
-0.0237523142187 0.22033522583 -0.0721159858833 214 196 133
0.00945836334159 0.218626717886 -0.0618651817497 214 196 133
0.0297509827694 0.216069833248 -0.0530081150265 214 196 133
0.0402928067069 0.211107093271 -0.0421765961602 214 196 133
0.0554444130246 0.201851252869 -0.0229693296074 214 196 133
0.0432421080233 0.17623311054 0.018256163427 214 196 133
0.0341990569888 0.1687205962 0.0291407136063 214 196 133
-0.155361618259 0.0748017240461 -0.140452419498 105 192 141
-0.150983268433 0.0969558893777 -0.136479877911 105 192 141
-0.132895824563 0.136418645536 -0.14035923027 105 192 141
-0.122351979774 0.150899144789 -0.145942893867 105 192 141
-0.0827738940131 0.161703481944 -0.18387642689 105 192 141
-0.0602042607106 0.161178566655 -0.208114241843 105 192 141
-0.0591962532351 0.158710279714 -0.210149657008 105 192 141
-0.0474823658234 0.122534117509 -0.236723201491 105 192 141
-0.0488225956794 0.0713209404631 -0.255256932093 105 192 141
-0.0565267439484 0.0689331818982 -0.247983840849 105 192 141
-0.0688456480239 0.0658795946243 -0.236056250872 105 192 141
-0.0764457327872 0.065599918921 -0.228072324078 105 192 141
-0.135905683142 0.0661184908 -0.164554409625 105 192 141
-0.151526497842 0.0719253902018 -0.145657320126 105 192 141
-0.0212683618182 -0.0875960722244 0.33634228083 179 195 224
-0.0304517001623 -0.0939108038382 0.315875872888 179 195 224
-0.0407674337789 -0.100496432134 0.293660020576 179 195 224
-0.0478456770528 -0.102384790319 0.282427352773 179 195 224
-0.155335733016 -0.113139713153 0.139175702059 179 195 224
-0.160465553508 -0.108013876993 0.140937860097 179 195 224
-0.159480978089 -0.101422000684 0.152151258652 179 195 224
-0.157380205475 -0.0898155174739 0.172328323498 179 195 224
-0.155395746253 -0.0861167376248 0.180310243252 179 195 224
-0.144496780483 -0.0666852552185 0.222802091494 179 195 224
-0.10786163513 -0.0145163250551 0.345584927149 179 195 224
-0.0864110572118 0.00668621108165 0.403229601433 179 195 224
-0.0456473421787 0.0421854491803 0.505466288818 179 195 224
-0.0203775628514 0.0516571758484 0.549730661898 179 195 224
-0.0183516272199 0.0513880379298 0.551711140785 179 195 224
-0.00770826133145 0.0469824424825 0.557553926305 179 195 224
-0.00343649146214 0.0394065358292 0.551043223066 179 195 224
0.00370035964062 -0.0177100185546 0.472372767732 179 195 224
-0.00815526168179 -0.0539959691714 0.40305179206 179 195 224
-0.028581112314 -0.204760592387 -0.227173030121 146 131 223
-0.0475336401862 -0.199012925833 -0.245756961693 146 131 223
-0.0602721970569 -0.193562382184 -0.247146753973 146 131 223
-0.142841550883 -0.155006714472 -0.233593988614 146 131 223
-0.184574598841 -0.134397934736 -0.218900404409 146 131 223
-0.198881090995 -0.122662524156 -0.181200672523 146 131 223
-0.162422389712 -0.100125086473 0.0894848040365 146 131 223
-0.132166850778 -0.104168879812 0.155039718866 146 131 223
-0.117942219753 -0.106361094967 0.183825082234 146 131 223
-0.105756544376 -0.108249810608 0.208409303856 146 131 223
-0.0647501702133 -0.11534876617 0.28594104505 146 131 223
-0.0618958352989 -0.116316956816 0.288022583337 146 131 223
-0.0520671243857 -0.119833983035 0.293909550769 146 131 223
-0.0408282828735 -0.127451676829 0.27549246564 146 131 223
-0.037774004713 -0.13031538106 0.264938103846 146 131 223
-0.0311151015729 -0.138363545578 0.229306350001 146 131 223
-0.0295587106142 -0.143732528992 0.196586123319 146 131 223
0.158604581133 -0.0260482812848 0.27870365277 191 194 182
0.160911641241 -0.0287763898054 0.272335690162 191 194 182
0.16174371709 -0.0314753239499 0.267752365243 191 194 182
0.156963170284 -0.0406350722613 0.261197689808 191 194 182
0.140433440596 -0.0611696072643 0.253382843018 191 194 182
0.115214964668 -0.0904671204778 0.244167944184 191 194 182
0.0946652458451 -0.114301112922 0.236711822956 191 194 182
0.0933238564903 -0.115081978173 0.237258310467 191 194 182
0.065997364914 -0.0951610097582 0.296161758757 191 194 182
0.0429402912744 -0.0734575475597 0.352388687235 191 194 182
0.0121978379636 -0.0118442598213 0.470923832249 191 194 182
0.0110844943019 0.00743241999036 0.497943289648 191 194 182
0.0166331004532 0.0443331763409 0.540576213256 191 194 182
0.0295505949922 0.0552673105306 0.539866086881 191 194 182
0.0505842514001 0.0546454867482 0.514142311711 191 194 182
0.065161646662 0.0515931180656 0.492819275277 191 194 182
0.142719600209 -0.00837505370342 0.321068403294 191 194 182
0.241013355315 -0.0617151378477 -0.210490988517 109 179 211
0.23852917815 -0.0672756902212 -0.227521476593 109 179 211
0.215725074888 -0.09038281453 -0.233829139758 109 179 211
0.191249250426 -0.114238023506 -0.235519836702 109 179 211
0.163190269976 -0.140171575979 -0.229864868893 109 179 211
0.124071981697 -0.174956903869 -0.214624948745 109 179 211
0.117066360522 -0.178306055735 -0.196426980994 109 179 211
0.109305748429 -0.172449338382 -0.124892557399 109 179 211
0.0970567230631 -0.142776911003 0.0977183199702 109 179 211
0.0958160300488 -0.124768619784 0.200833801232 109 179 211
0.100916339858 -0.116532137739 0.218722352865 109 179 211
0.111301789759 -0.103276786536 0.236265727097 109 179 211
0.14251749 -0.0686565288364 0.260955561818 109 179 211
0.161979689021 -0.0517578241145 0.251183675131 109 179 211
0.173237481575 -0.0441867068509 0.233696226532 109 179 211
0.182376914052 -0.0423149013593 0.196543714934 109 179 211
0.190471376107 -0.0444514105457 0.143263097242 109 179 211
0.211286192121 -0.051002350952 0.000576710132546 109 179 211
0.0219715836111 0.193157071556 -0.188229204109 134 154 196
-0.0325393438195 0.178179563686 -0.205567627396 134 154 196
-0.0379084560696 0.158619525486 -0.216810858108 134 154 196
-0.0397412821457 0.132084475636 -0.231119271816 134 154 196
-0.039293528869 0.123785852986 -0.235417282666 134 154 196
-0.0213104631597 0.0777591983175 -0.256570785646 134 154 196
0.0148046963605 0.0693693151984 -0.254739296968 134 154 196
0.0533530443857 0.077698204947 -0.24367117738 134 154 196
0.0829772860794 0.0917770783948 -0.231116961436 134 154 196
0.0852000712478 0.123412249416 -0.214051898094 134 154 196
0.0847586728764 0.151601859341 -0.19926499216 134 154 196
0.0778847940166 0.164490871397 -0.193659644982 134 154 196
0.0621737769216 0.175243591709 -0.190711284835 134 154 196
-0.0940894724765 0.182847217604 -0.0297994681323 160 129 134
-0.106036907515 0.176237210224 -0.0620734948043 160 129 134
-0.12013449216 0.163909345578 -0.0936127966679 160 129 134
-0.125336109149 0.158312869641 -0.103735880413 160 129 134
-0.133490523617 0.148070310874 -0.117482738991 160 129 134
-0.135464214764 0.144911896348 -0.119828473189 160 129 134
-0.15326453615 0.103501744661 -0.122308483463 160 129 134
-0.162188910732 0.0768278127643 -0.115008722307 160 129 134
-0.158212665774 0.0671963976321 -0.0871722397616 160 129 134
-0.147049832545 0.0657066490061 -0.0459413893955 160 129 134
-0.139183234127 0.0666249015753 -0.019729204935 160 129 134
-0.129937028659 0.070440003291 0.00712691594174 160 129 134
-0.127020545674 0.0746053101264 0.0113182467816 160 129 134
-0.113529780698 0.0974281591218 0.0255687885566 160 129 134
-0.106037925883 0.118100603622 0.0219258177847 160 129 134
-0.0936357772839 0.164630875903 -0.00188999723352 160 129 134
-0.0936850892949 0.167481882565 -0.00618210923733 160 129 134
-0.249886212617 0.00386590785074 -0.247812812229 145 120 161
-0.254795987433 0.0247245144702 -0.255825826909 145 120 161
-0.255692317923 0.0356591313137 -0.261146558841 145 120 161
-0.255707245784 0.0454123236258 -0.266416282993 145 120 161
-0.253332860999 0.050885040458 -0.270964256656 145 120 161
-0.236136888607 0.0531157966356 -0.283653967502 145 120 161
-0.146983755314 0.0607135082629 -0.347296380578 145 120 161
-0.129195164866 0.060861038774 -0.359254084048 145 120 161
-0.080287171323 0.0602602801931 -0.39158583992 145 120 161
-0.0073930360131 0.0588391848993 -0.439489608098 145 120 161
-0.00813790780243 0.04478649093 -0.431385101108 145 120 161
-0.0123265092842 -0.00605238591486 -0.40106768842 145 120 161
-0.0250840577472 -0.072372146694 -0.356648336723 145 120 161
-0.0427253632667 -0.162170103038 -0.296258548379 145 120 161
-0.0520689711192 -0.178808718572 -0.281012636533 145 120 161
-0.0688047397677 -0.180105587984 -0.26913575461 145 120 161
-0.104280320976 -0.161341129032 -0.255605670633 145 120 161
-0.149115479342 -0.135645662197 -0.23957794687 145 120 161
-0.185773039853 -0.108140835031 -0.229990048943 145 120 161
-0.222286610657 -0.0515041966201 -0.236268208282 145 120 161
-0.243958454634 -0.0093071334193 -0.244639951859 145 120 161
-0.249706837898 0.00327386004041 -0.24761209174 145 120 161
49 0 1 2 3 4 5 6 7 8 9 10 11 12 13 14 15 16 17 18 19 20 21 22 23 24 25 26 27 28 29 30 31 32 33 34 35 36 37 38 39 40 41 42 43 44 45 46 47 48 
24 49 50 51 52 53 54 55 56 57 58 59 60 61 62 63 64 65 66 67 68 69 70 71 72 
30 73 74 75 76 77 78 79 80 81 82 83 84 85 86 87 88 89 90 91 92 93 94 95 96 97 98 99 100 101 102 
18 103 104 105 106 107 108 109 110 111 112 113 114 115 116 117 118 119 120 
25 121 122 123 124 125 126 127 128 129 130 131 132 133 134 135 136 137 138 139 140 141 142 143 144 145 
13 146 147 148 149 150 151 152 153 154 155 156 157 158 
18 159 160 161 162 163 164 165 166 167 168 169 170 171 172 173 174 175 176 
13 177 178 179 180 181 182 183 184 185 186 187 188 189 
17 190 191 192 193 194 195 196 197 198 199 200 201 202 203 204 205 206 
16 207 208 209 210 211 212 213 214 215 216 217 218 219 220 221 222 
15 223 224 225 226 227 228 229 230 231 232 233 234 235 236 237 
14 238 239 240 241 242 243 244 245 246 247 248 249 250 251 
19 252 253 254 255 256 257 258 259 260 261 262 263 264 265 266 267 268 269 270 
17 271 272 273 274 275 276 277 278 279 280 281 282 283 284 285 286 287 
17 288 289 290 291 292 293 294 295 296 297 298 299 300 301 302 303 304 
18 305 306 307 308 309 310 311 312 313 314 315 316 317 318 319 320 321 322 
13 323 324 325 326 327 328 329 330 331 332 333 334 335 
17 336 337 338 339 340 341 342 343 344 345 346 347 348 349 350 351 352 
22 353 354 355 356 357 358 359 360 361 362 363 364 365 366 367 368 369 370 371 372 373 374 

